<svg width="100" height="100" viewBox="0 0 100 100" fill="none" xmlns="http://www.w3.org/2000/svg">
<circle cx="48" cy="48" r="48" fill="#BF83FF"/>
<mask id="mask0_178_8778" style="mask-type:alpha" maskUnits="userSpaceOnUse" x="0" y="0" width="96" height="96">
<circle cx="48" cy="48" r="48" fill="#C4C4C4"/>
</mask>
<g mask="url(#mask0_178_8778)">
<path fill-rule="evenodd" clip-rule="evenodd" d="M48.0001 24.8506C38.3603 24.8506 30.5456 32.6652 30.5456 42.3051V44.0817C28.7766 44.3784 27.4286 45.9169 27.4286 47.7702V52.0448C27.4286 53.9357 28.8317 55.4988 30.6535 55.7499C31.3347 61.8711 35.1815 67.0368 40.5197 69.5727V75.3106C27.3176 76.0211 16.8313 86.9513 16.8313 100.331H79.169C79.169 86.9514 68.6828 76.0213 55.4808 75.3106V69.5725C60.8188 67.0367 64.6655 61.871 65.3467 55.7499C67.1686 55.4988 68.5717 53.9357 68.5717 52.0448V47.7702C68.5717 45.9169 67.2237 44.3784 65.4547 44.0817V42.3051C65.4547 32.6652 57.64 24.8506 48.0001 24.8506Z" fill="#D0C6AC"/>
<mask id="mask1_178_8778" style="mask-type:alpha" maskUnits="userSpaceOnUse" x="16" y="24" width="64" height="77">
<path fill-rule="evenodd" clip-rule="evenodd" d="M48.0001 24.8506C38.3603 24.8506 30.5456 32.6652 30.5456 42.3051V44.0817C28.7766 44.3784 27.4286 45.9169 27.4286 47.7702V52.0448C27.4286 53.9357 28.8317 55.4988 30.6535 55.7499C31.3347 61.8711 35.1815 67.0368 40.5197 69.5727V75.3106C27.3176 76.0211 16.8313 86.9513 16.8313 100.331H79.169C79.169 86.9514 68.6828 76.0213 55.4808 75.3106V69.5725C60.8188 67.0367 64.6655 61.871 65.3467 55.7499C67.1686 55.4988 68.5717 53.9357 68.5717 52.0448V47.7702C68.5717 45.9169 67.2237 44.3784 65.4547 44.0817V42.3051C65.4547 32.6652 57.64 24.8506 48.0001 24.8506Z" fill="white"/>
</mask>
<g mask="url(#mask1_178_8778)">
<rect width="82.2857" height="75.4801" transform="translate(6.85715 24.8506)" fill="#FFCCD7"/>
<rect x="6.85715" y="24.8506" width="82.2857" height="75.4801" fill="#FFCCD7"/>
<path fill-rule="evenodd" clip-rule="evenodd" d="M30.5456 53.7976V56.2722C30.5456 65.9121 38.3602 73.7267 48.0001 73.7267C57.64 73.7267 65.4547 65.9121 65.4547 56.2722V53.7976C65.4547 63.4375 57.64 71.2521 48.0001 71.2521C38.3602 71.2521 30.5456 63.4375 30.5456 53.7976Z" fill="black" fill-opacity="0.1"/>
</g>
<path fill-rule="evenodd" clip-rule="evenodd" d="M48.1561 86.6664C56.6771 86.6664 63.5847 82.5834 63.5847 77.5469C63.5847 77.4073 63.5794 77.2686 63.5689 77.1306C72.7191 80.8578 79.169 89.8411 79.169 100.331H16.8313C16.8313 89.7179 23.4335 80.6471 32.7547 77.0015C32.7367 77.1819 32.7276 77.3638 32.7276 77.5469C32.7276 82.5834 39.6352 86.6664 48.1561 86.6664Z" fill="#6223A9"/>
<mask id="mask2_178_8778" style="mask-type:alpha" maskUnits="userSpaceOnUse" x="16" y="77" width="64" height="24">
<path fill-rule="evenodd" clip-rule="evenodd" d="M48.1561 86.6664C56.6771 86.6664 63.5847 82.5834 63.5847 77.5469C63.5847 77.4073 63.5794 77.2686 63.5689 77.1306C72.7191 80.8578 79.169 89.8411 79.169 100.331H16.8313C16.8313 89.7179 23.4335 80.6471 32.7547 77.0015C32.7367 77.1819 32.7276 77.3638 32.7276 77.5469C32.7276 82.5834 39.6352 86.6664 48.1561 86.6664Z" fill="white"/>
</mask>
<g mask="url(#mask2_178_8778)">
<rect x="6.85715" y="66.303" width="82.2857" height="34.0279" fill="#6223A9"/>
</g>
<path fill-rule="evenodd" clip-rule="evenodd" d="M43.6367 59.8062C43.6367 62.198 45.5904 64.137 48.0004 64.137C50.4103 64.137 52.364 62.198 52.364 59.8062" fill="#0C092A"/>
<g opacity="0.3">
<path fill-rule="evenodd" clip-rule="evenodd" d="M44.2599 53.9294C44.2599 55.2962 45.9344 56.4042 48.0001 56.4042C50.0658 56.4042 51.7404 55.2962 51.7404 53.9294" fill="#0C092A"/>
</g>
<ellipse cx="39.8963" cy="48.3607" rx="1.87013" ry="1.85607" fill="#0C092A"/>
<ellipse cx="56.1041" cy="48.3607" rx="1.87013" ry="1.85607" fill="#0C092A"/>
<path d="M35.4172 44.3883C36.6374 42.6842 39.9827 41.7287 42.8643 42.431C43.1987 42.5125 43.5363 42.3095 43.6184 41.9777C43.7005 41.6459 43.496 41.3108 43.1616 41.2293C39.8152 40.4137 35.9414 41.5202 34.401 43.6715C34.2015 43.9501 34.2673 44.3363 34.548 44.5342C34.8286 44.7322 35.2178 44.6669 35.4172 44.3883Z" fill="#0C092A"/>
<path d="M60.5828 44.3883C59.3626 42.6842 56.0173 41.7287 53.1357 42.431C52.8014 42.5125 52.4637 42.3095 52.3816 41.9777C52.2995 41.6459 52.504 41.3108 52.8384 41.2293C56.1848 40.4137 60.0586 41.5202 61.5991 43.6715C61.7985 43.9501 61.7327 44.3363 61.452 44.5342C61.1714 44.7322 60.7822 44.6669 60.5828 44.3883Z" fill="#0C092A"/>
<mask id="mask3_178_8778" style="mask-type:alpha" maskUnits="userSpaceOnUse" x="6" y="13" width="84" height="88">
<rect x="6.85715" y="13.7144" width="82.2857" height="86.6165" fill="white"/>
</mask>
<g mask="url(#mask3_178_8778)">
<path fill-rule="evenodd" clip-rule="evenodd" d="M19.0132 58.5695C18.8208 49.0305 27.8399 29.1183 31.169 25.1602C33.6386 22.2242 40.4247 19.7624 48.0002 19.9014C55.5758 20.0404 62.6065 21.6993 65.1431 24.8509C68.9843 29.6233 76.9463 47.7667 76.9872 58.5695C77.0163 66.2412 74.0145 73.9315 69.8184 74.346C67.4493 74.5801 64.4397 74.2763 60.8235 73.9112C59.1686 73.7441 57.3866 73.5642 55.4808 73.4172V69.5729C61.3777 66.7715 65.4547 60.7609 65.4547 53.7981V45.1327C62.1794 43.3419 59.3911 41.1798 57.0681 38.983C58.1139 40.9133 59.3101 42.6661 60.6588 43.9909C51.1267 41.3365 44.5372 35.9009 40.5882 31.639C38.7728 35.0663 35.5212 40.0786 30.5456 43.8967V53.7981C30.5456 60.7611 34.6227 66.7717 40.5197 69.573V73.6487C38.3525 73.9432 36.3383 74.3168 34.4847 74.6606L34.4847 74.6606C31.1033 75.2879 28.2564 75.816 25.9902 75.5835C21.5571 75.1289 19.1678 66.2399 19.0132 58.5695Z" fill="#E6E6E6"/>
<mask id="mask4_178_8778" style="mask-type:alpha" maskUnits="userSpaceOnUse" x="19" y="19" width="58" height="57">
<path fill-rule="evenodd" clip-rule="evenodd" d="M19.0132 58.5695C18.8208 49.0305 27.8399 29.1183 31.169 25.1602C33.6386 22.2242 40.4247 19.7624 48.0002 19.9014C55.5758 20.0404 62.6065 21.6993 65.1431 24.8509C68.9843 29.6233 76.9463 47.7667 76.9872 58.5695C77.0163 66.2412 74.0145 73.9315 69.8184 74.346C67.4493 74.5801 64.4397 74.2763 60.8235 73.9112C59.1686 73.7441 57.3866 73.5642 55.4808 73.4172V69.5729C61.3777 66.7715 65.4547 60.7609 65.4547 53.7981V45.1327C62.1794 43.3419 59.3911 41.1798 57.0681 38.983C58.1139 40.9133 59.3101 42.6661 60.6588 43.9909C51.1267 41.3365 44.5372 35.9009 40.5882 31.639C38.7728 35.0663 35.5212 40.0786 30.5456 43.8967V53.7981C30.5456 60.7611 34.6227 66.7717 40.5197 69.573V73.6487C38.3525 73.9432 36.3383 74.3168 34.4847 74.6606L34.4847 74.6606C31.1033 75.2879 28.2564 75.816 25.9902 75.5835C21.5571 75.1289 19.1678 66.2399 19.0132 58.5695Z" fill="white"/>
</mask>
<g mask="url(#mask4_178_8778)">
<rect x="6.54559" y="13.7144" width="82.9091" height="86.6165" fill="#0C092A"/>
</g>
</g>
</g>
<mask id="mask5_178_8778" style="mask-type:alpha" maskUnits="userSpaceOnUse" x="72" y="72" width="28" height="28">
<rect x="72" y="72" width="28" height="28" rx="4" fill="#C4C4C4"/>
</mask>
<g mask="url(#mask5_178_8778)">
<mask id="mask6_178_8778" style="mask-type:alpha" maskUnits="userSpaceOnUse" x="67" y="72" width="39" height="28">
<rect x="67.8" y="72" width="37.3333" height="28" rx="2" fill="white"/>
</mask>
<g mask="url(#mask6_178_8778)">
<path fill-rule="evenodd" clip-rule="evenodd" d="M67.8 72V100H105.133V72H67.8Z" fill="#F7FCFF"/>
<mask id="mask7_178_8778" style="mask-type:alpha" maskUnits="userSpaceOnUse" x="67" y="72" width="39" height="28">
<path fill-rule="evenodd" clip-rule="evenodd" d="M67.8 72V100H105.133V72H67.8Z" fill="white"/>
</mask>
<g mask="url(#mask7_178_8778)">
<path fill-rule="evenodd" clip-rule="evenodd" d="M67.8 72V81.3333H105.133V72H67.8Z" fill="#F14423"/>
<path fill-rule="evenodd" clip-rule="evenodd" d="M67.8 90.6667V100H105.133V90.6667H67.8Z" fill="#5EAA22"/>
</g>
</g>
<rect x="67.8" y="72" width="37.3333" height="28" rx="2" fill="url(#paint0_linear_178_8778)" style="mix-blend-mode:overlay"/>
</g>
<defs>
<linearGradient id="paint0_linear_178_8778" x1="86.4667" y1="72" x2="86.4667" y2="100" gradientUnits="userSpaceOnUse">
<stop stop-color="white" stop-opacity="0.7"/>
<stop offset="1" stop-opacity="0.3"/>
</linearGradient>
</defs>
</svg>
