<svg width="88" height="88" viewBox="0 0 88 88" fill="none" xmlns="http://www.w3.org/2000/svg">
<path d="M41.9929 1.16429C43.2341 0.444285 44.7659 0.444285 46.0071 1.16429L63.03 11.0391L80.0933 20.8439C81.3374 21.5589 82.1033 22.8854 82.1004 24.3203L82.06 44L82.1004 63.6797C82.1033 65.1146 81.3374 66.4411 80.0933 67.1561L63.03 76.9609L46.0071 86.8357C44.7659 87.5557 43.2341 87.5557 41.9929 86.8357L24.97 76.9609L7.90674 67.1561C6.66259 66.4411 5.8967 65.1146 5.89964 63.6797L5.94 44L5.89964 24.3203C5.8967 22.8854 6.66259 21.5589 7.90674 20.8439L24.97 11.0391L41.9929 1.16429Z" fill="#DCDCDC"/>
<mask id="mask0_178_8870" style="mask-type:alpha" maskUnits="userSpaceOnUse" x="5" y="0" width="78" height="88">
<path d="M41.9929 1.16429C43.2341 0.444285 44.7659 0.444285 46.0071 1.16429L63.03 11.0391L80.0933 20.8439C81.3374 21.5589 82.1033 22.8854 82.1004 24.3203L82.06 44L82.1004 63.6797C82.1033 65.1146 81.3374 66.4411 80.0933 67.1561L63.03 76.9609L46.0071 86.8357C44.7659 87.5557 43.2341 87.5557 41.9929 86.8357L24.97 76.9609L7.90674 67.1561C6.66259 66.4411 5.8967 65.1146 5.89964 63.6797L5.94 44L5.89964 24.3203C5.8967 22.8854 6.66259 21.5589 7.90674 20.8439L24.97 11.0391L41.9929 1.16429Z" fill="#FF8FA2"/>
</mask>
<g mask="url(#mask0_178_8870)">
<circle cx="44" cy="88" r="44" fill="#ECECE7"/>
</g>
<circle cx="44" cy="44" r="23.5" fill="#B5B5B5" stroke="#9E9E9E" stroke-width="3"/>
<path d="M39.3333 54.5H48.6667" stroke="white" stroke-width="2" stroke-linecap="round" stroke-linejoin="round"/>
<path d="M44 49.8333V54.4999" stroke="white" stroke-width="2" stroke-linecap="round" stroke-linejoin="round"/>
<path d="M38.1667 34.6667H49.8333" stroke="white" stroke-width="2" stroke-linecap="round" stroke-linejoin="round"/>
<path d="M49.8333 34.6667V44.0001C49.8333 45.5472 49.2187 47.0309 48.1248 48.1249C47.0308 49.2188 45.5471 49.8334 44 49.8334C42.4529 49.8334 40.9692 49.2188 39.8752 48.1249C38.7812 47.0309 38.1667 45.5472 38.1667 44.0001V34.6667" fill="white"/>
<path d="M49.8333 34.6667V44.0001C49.8333 45.5472 49.2187 47.0309 48.1248 48.1249C47.0308 49.2188 45.5471 49.8334 44 49.8334C42.4529 49.8334 40.9692 49.2188 39.8752 48.1249C38.7812 47.0309 38.1667 45.5472 38.1667 44.0001V34.6667" stroke="white" stroke-width="2" stroke-linecap="round" stroke-linejoin="round"/>
<path d="M35.8333 42.8334C37.122 42.8334 38.1667 41.7887 38.1667 40.5001C38.1667 39.2114 37.122 38.1667 35.8333 38.1667C34.5447 38.1667 33.5 39.2114 33.5 40.5001C33.5 41.7887 34.5447 42.8334 35.8333 42.8334Z" stroke="white" stroke-width="2" stroke-linecap="round" stroke-linejoin="round"/>
<path d="M52.1667 42.8334C53.4553 42.8334 54.5 41.7887 54.5 40.5001C54.5 39.2114 53.4553 38.1667 52.1667 38.1667C50.878 38.1667 49.8333 39.2114 49.8333 40.5001C49.8333 41.7887 50.878 42.8334 52.1667 42.8334Z" stroke="white" stroke-width="2" stroke-linecap="round" stroke-linejoin="round"/>
<path opacity="0.5" d="M41.9929 1.16429C43.2341 0.444285 44.7659 0.444285 46.0071 1.16429L63.03 11.0391L80.0933 20.8439C81.3374 21.5589 82.1033 22.8854 82.1004 24.3203L82.06 44L82.1004 63.6797C82.1033 65.1146 81.3374 66.4411 80.0933 67.1561L63.03 76.9609L46.0071 86.8357C44.7659 87.5557 43.2341 87.5557 41.9929 86.8357L24.97 76.9609L7.90674 67.1561C6.66259 66.4411 5.8967 65.1146 5.89964 63.6797L5.94 44L5.89964 24.3203C5.8967 22.8854 6.66259 21.5589 7.90674 20.8439L24.97 11.0391L41.9929 1.16429Z" fill="#0C092A"/>
<path d="M53.1667 42.1667H34.8333C32.8083 42.1667 31.1667 43.8084 31.1667 45.8334V56.8334C31.1667 58.8585 32.8083 60.5001 34.8333 60.5001H53.1667C55.1917 60.5001 56.8333 58.8585 56.8333 56.8334V45.8334C56.8333 43.8084 55.1917 42.1667 53.1667 42.1667Z" fill="white" stroke="white" stroke-width="3" stroke-linecap="round" stroke-linejoin="round"/>
<path d="M44 53.1667C45.0125 53.1667 45.8333 52.3459 45.8333 51.3333C45.8333 50.3208 45.0125 49.5 44 49.5C42.9875 49.5 42.1667 50.3208 42.1667 51.3333C42.1667 52.3459 42.9875 53.1667 44 53.1667Z" stroke="#726E96" stroke-width="3" stroke-linecap="round" stroke-linejoin="round"/>
<path d="M36.6667 42.1667V34.8333C36.6667 32.8884 37.4393 31.0232 38.8145 29.6479C40.1898 28.2726 42.0551 27.5 44 27.5C45.9449 27.5 47.8102 28.2726 49.1854 29.6479C50.5607 31.0232 51.3333 32.8884 51.3333 34.8333V42.1667" stroke="white" stroke-width="3" stroke-linecap="round" stroke-linejoin="round"/>
</svg>
