<svg width="88" height="88" viewBox="0 0 88 88" fill="none" xmlns="http://www.w3.org/2000/svg">
<path d="M41.9929 1.16429C43.2341 0.444285 44.7659 0.444285 46.0071 1.16429L63.03 11.0391L80.0933 20.8439C81.3374 21.5589 82.1033 22.8854 82.1004 24.3203L82.06 44L82.1004 63.6797C82.1033 65.1146 81.3374 66.4411 80.0933 67.1561L63.03 76.9609L46.0071 86.8357C44.7659 87.5557 43.2341 87.5557 41.9929 86.8357L24.97 76.9609L7.90674 67.1561C6.66259 66.4411 5.8967 65.1146 5.89964 63.6797L5.94 44L5.89964 24.3203C5.8967 22.8854 6.66259 21.5589 7.90674 20.8439L24.97 11.0391L41.9929 1.16429Z" fill="#C9F2E9"/>
<mask id="mask0_178_8873" style="mask-type:alpha" maskUnits="userSpaceOnUse" x="5" y="0" width="78" height="88">
<path d="M41.9929 1.16429C43.2341 0.444285 44.7659 0.444285 46.0071 1.16429L63.03 11.0391L80.0933 20.8439C81.3374 21.5589 82.1033 22.8854 82.1004 24.3203L82.06 44L82.1004 63.6797C82.1033 65.1146 81.3374 66.4411 80.0933 67.1561L63.03 76.9609L46.0071 86.8357C44.7659 87.5557 43.2341 87.5557 41.9929 86.8357L24.97 76.9609L7.90674 67.1561C6.66259 66.4411 5.8967 65.1146 5.89964 63.6797L5.94 44L5.89964 24.3203C5.8967 22.8854 6.66259 21.5589 7.90674 20.8439L24.97 11.0391L41.9929 1.16429Z" fill="#FF8FA2"/>
</mask>
<g mask="url(#mask0_178_8873)">
<circle cx="44" cy="88" r="44" fill="#F2FCFB"/>
</g>
<circle cx="44" cy="44" r="23.5" fill="#84E6D1" stroke="#5EDEC3" stroke-width="3"/>
<path d="M44 54.5C49.799 54.5 54.5 49.799 54.5 44C54.5 38.201 49.799 33.5 44 33.5C38.201 33.5 33.5 38.201 33.5 44C33.5 49.799 38.201 54.5 44 54.5Z" fill="white"/>
<path d="M44 38.1667V44.0001L47.5 47.5001" stroke="#84E6D1" stroke-width="2" stroke-linecap="round" stroke-linejoin="round"/>
</svg>
