<svg width="88" height="88" viewBox="0 0 88 88" fill="none" xmlns="http://www.w3.org/2000/svg">
<path d="M41.9929 1.16429C43.2341 0.444285 44.7659 0.444285 46.0071 1.16429L63.03 11.0391L80.0933 20.8439C81.3374 21.5589 82.1033 22.8854 82.1004 24.3203L82.06 44L82.1004 63.6797C82.1033 65.1146 81.3374 66.4411 80.0933 67.1561L63.03 76.9609L46.0071 86.8357C44.7659 87.5557 43.2341 87.5557 41.9929 86.8357L24.97 76.9609L7.90674 67.1561C6.66259 66.4411 5.8967 65.1146 5.89964 63.6797L5.94 44L5.89964 24.3203C5.8967 22.8854 6.66259 21.5589 7.90674 20.8439L24.97 11.0391L41.9929 1.16429Z" fill="#FFF9C2"/>
<mask id="mask0_178_8874" style="mask-type:alpha" maskUnits="userSpaceOnUse" x="5" y="0" width="78" height="88">
<path d="M41.9929 1.16429C43.2341 0.444285 44.7659 0.444285 46.0071 1.16429L63.03 11.0391L80.0933 20.8439C81.3374 21.5589 82.1033 22.8854 82.1004 24.3203L82.06 44L82.1004 63.6797C82.1033 65.1146 81.3374 66.4411 80.0933 67.1561L63.03 76.9609L46.0071 86.8357C44.7659 87.5557 43.2341 87.5557 41.9929 86.8357L24.97 76.9609L7.90674 67.1561C6.66259 66.4411 5.8967 65.1146 5.89964 63.6797L5.94 44L5.89964 24.3203C5.8967 22.8854 6.66259 21.5589 7.90674 20.8439L24.97 11.0391L41.9929 1.16429Z" fill="#FF8FA2"/>
</mask>
<g mask="url(#mask0_178_8874)">
<circle cx="44" cy="88" r="44" fill="#FCFBF2"/>
</g>
<circle cx="44" cy="44" r="23.5" fill="#FFD66B" stroke="#FFC93D" stroke-width="3"/>
<path d="M38.8333 44H35.1667C34.6604 44 34.25 44.4477 34.25 45V51C34.25 51.5523 34.6604 52 35.1667 52H38.8333C39.3396 52 39.75 51.5523 39.75 51V45C39.75 44.4477 39.3396 44 38.8333 44Z" fill="white"/>
<path d="M52.8333 40H49.1667C48.6604 40 48.25 40.4477 48.25 41V51C48.25 51.5523 48.6604 52 49.1667 52H52.8333C53.3396 52 53.75 51.5523 53.75 51V41C53.75 40.4477 53.3396 40 52.8333 40Z" fill="white"/>
<path d="M45.8333 36H42.1667C41.6604 36 41.25 36.4477 41.25 37V51C41.25 51.5523 41.6604 52 42.1667 52H45.8333C46.3396 52 46.75 51.5523 46.75 51V37C46.75 36.4477 46.3396 36 45.8333 36Z" fill="white"/>
</svg>
