<svg width="88" height="88" viewBox="0 0 88 88" fill="none" xmlns="http://www.w3.org/2000/svg">
<path d="M41.9929 1.16429C43.2341 0.444285 44.7659 0.444285 46.0071 1.16429L63.03 11.0391L80.0933 20.8439C81.3374 21.5589 82.1033 22.8854 82.1004 24.3203L82.06 44L82.1004 63.6797C82.1033 65.1146 81.3374 66.4411 80.0933 67.1561L63.03 76.9609L46.0071 86.8357C44.7659 87.5557 43.2341 87.5557 41.9929 86.8357L24.97 76.9609L7.90674 67.1561C6.66259 66.4411 5.8967 65.1146 5.89964 63.6797L5.94 44L5.89964 24.3203C5.8967 22.8854 6.66259 21.5589 7.90674 20.8439L24.97 11.0391L41.9929 1.16429Z" fill="#D6F0FF"/>
<mask id="mask0_178_8875" style="mask-type:alpha" maskUnits="userSpaceOnUse" x="5" y="0" width="78" height="88">
<path d="M41.9929 1.16429C43.2341 0.444285 44.7659 0.444285 46.0071 1.16429L63.03 11.0391L80.0933 20.8439C81.3374 21.5589 82.1033 22.8854 82.1004 24.3203L82.06 44L82.1004 63.6797C82.1033 65.1146 81.3374 66.4411 80.0933 67.1561L63.03 76.9609L46.0071 86.8357C44.7659 87.5557 43.2341 87.5557 41.9929 86.8357L24.97 76.9609L7.90674 67.1561C6.66259 66.4411 5.8967 65.1146 5.89964 63.6797L5.94 44L5.89964 24.3203C5.8967 22.8854 6.66259 21.5589 7.90674 20.8439L24.97 11.0391L41.9929 1.16429Z" fill="#FF8FA2"/>
</mask>
<g mask="url(#mask0_178_8875)">
<circle cx="44" cy="88" r="44" fill="#F2FAFC"/>
</g>
<circle cx="44" cy="44" r="23.5" fill="#8FC9FF" stroke="#6BB8FF" stroke-width="3"/>
<path d="M44 54.5C49.799 54.5 54.5 49.799 54.5 44C54.5 38.201 49.799 33.5 44 33.5C38.201 33.5 33.5 38.201 33.5 44C33.5 49.799 38.201 54.5 44 54.5Z" fill="white" stroke="white" stroke-width="2" stroke-linecap="round" stroke-linejoin="round"/>
<path d="M40.5 41.6667H40.5117" stroke="#8FC9FF" stroke-width="2" stroke-linecap="round" stroke-linejoin="round"/>
<path d="M47.5 41.6667H47.5117" stroke="#8FC9FF" stroke-width="2" stroke-linecap="round" stroke-linejoin="round"/>
<path d="M41.0833 47.5C41.4635 47.888 41.9173 48.1963 42.4182 48.4067C42.919 48.6172 43.4568 48.7256 44 48.7256C44.5432 48.7256 45.081 48.6172 45.5819 48.4067C46.0827 48.1963 46.5365 47.888 46.9167 47.5" stroke="#8FC9FF" stroke-width="2" stroke-linecap="round" stroke-linejoin="round"/>
</svg>
