<svg width="375" height="567" viewBox="0 0 375 567" fill="none" xmlns="http://www.w3.org/2000/svg">
<path opacity="0.1" fill-rule="evenodd" clip-rule="evenodd" d="M187 421C253.274 421 307 367.274 307 301C307 234.726 253.274 181 187 181C120.726 181 67 234.726 67 301C67 367.274 120.726 421 187 421Z" fill="white"/>
<path opacity="0.1" fill-rule="evenodd" clip-rule="evenodd" d="M187 511C302.98 511 397 416.98 397 301C397 185.02 302.98 91 187 91C71.0202 91 -23 185.02 -23 301C-23 416.98 71.0202 511 187 511Z" stroke="white" stroke-width="1.5"/>
<path opacity="0.1" fill-rule="evenodd" clip-rule="evenodd" d="M187 601C352.685 601 487 466.685 487 301C487 135.315 352.685 1 187 1C21.3146 1 -113 135.315 -113 301C-113 466.685 21.3146 601 187 601Z" stroke="white" stroke-width="1.5"/>
</svg>
