<svg width="76" height="49" viewBox="0 0 76 49" fill="none" xmlns="http://www.w3.org/2000/svg">
<path d="M29 25L31 23M31 23L38 16L45 23M31 23V33C31 33.2652 31.1054 33.5196 31.2929 33.7071C31.4804 33.8946 31.7348 34 32 34H35C35.2652 34 35.5196 33.8946 35.7071 33.7071C35.8946 33.5196 36 33.2652 36 33V29C36 28.7348 36.1054 28.4804 36.2929 28.2929C36.4804 28.1054 36.7348 28 37 28H39C39.2652 28 39.5196 28.1054 39.7071 28.2929C39.8946 28.4804 40 28.7348 40 29V33C40 33.2652 40.1054 33.5196 40.2929 33.7071C40.4804 33.8946 40.7348 34 41 34H44C44.2652 34 44.5196 33.8946 44.7071 33.7071C44.8946 33.5196 45 33.2652 45 33V23M45 23L47 25" stroke="#CCCCCC" stroke-width="2" stroke-linecap="round" stroke-linejoin="round"/>
</svg>
