<svg width="76" height="49" viewBox="0 0 76 49" fill="none" xmlns="http://www.w3.org/2000/svg">
<path d="M38.8484 15.7515C38.6234 15.5265 38.3182 15.4001 38 15.4001C37.6818 15.4001 37.3766 15.5265 37.1516 15.7515L28.7516 24.1515C28.533 24.3778 28.412 24.6809 28.4148 24.9956C28.4175 25.3102 28.5437 25.6112 28.7662 25.8337C28.9887 26.0562 29.2897 26.1824 29.6043 26.1851C29.9189 26.1878 30.2221 26.0669 30.4484 25.8483L30.8 25.4967V33.3999C30.8 33.7181 30.9264 34.0234 31.1515 34.2484C31.3765 34.4735 31.6817 34.5999 32 34.5999H34.4C34.7182 34.5999 35.0235 34.4735 35.2485 34.2484C35.4736 34.0234 35.6 33.7181 35.6 33.3999V30.9999C35.6 30.6816 35.7264 30.3764 35.9515 30.1514C36.1765 29.9263 36.4817 29.7999 36.8 29.7999H39.2C39.5182 29.7999 39.8235 29.9263 40.0485 30.1514C40.2736 30.3764 40.4 30.6816 40.4 30.9999V33.3999C40.4 33.7181 40.5264 34.0234 40.7515 34.2484C40.9765 34.4735 41.2817 34.5999 41.6 34.5999H44C44.3182 34.5999 44.6235 34.4735 44.8485 34.2484C45.0736 34.0234 45.2 33.7181 45.2 33.3999V25.4967L45.5516 25.8483C45.7779 26.0669 46.081 26.1878 46.3957 26.1851C46.7103 26.1824 47.0113 26.0562 47.2338 25.8337C47.4563 25.6112 47.5825 25.3102 47.5852 24.9956C47.5879 24.6809 47.467 24.3778 47.2484 24.1515L38.8484 15.7515Z" fill="#0C092A"/>
</svg>
