<svg width="24" height="24" viewBox="0 0 24 24" fill="none" xmlns="http://www.w3.org/2000/svg">
<path d="M12 21C16.9706 21 21 16.9706 21 12C21 7.02944 16.9706 3 12 3C7.02944 3 3 7.02944 3 12C3 16.9706 7.02944 21 12 21Z" stroke="white" stroke-width="2" stroke-linecap="round" stroke-linejoin="round"/>
<path d="M3.6 9H20.4" stroke="white" stroke-width="2" stroke-linecap="round" stroke-linejoin="round"/>
<path d="M3.6 15H20.4" stroke="white" stroke-width="2" stroke-linecap="round" stroke-linejoin="round"/>
<path d="M11.5 3C9.81534 5.69961 8.9222 8.81787 8.9222 12C8.9222 15.1821 9.81534 18.3004 11.5 21" stroke="white" stroke-width="2" stroke-linecap="round" stroke-linejoin="round"/>
<path d="M12.5 3C14.1847 5.69961 15.0778 8.81787 15.0778 12C15.0778 15.1821 14.1847 18.3004 12.5 21" stroke="white" stroke-width="2" stroke-linecap="round" stroke-linejoin="round"/>
</svg>
