<svg width="76" height="49" viewBox="0 0 76 49" fill="none" xmlns="http://www.w3.org/2000/svg">
<path d="M34 25H30C29.4477 25 29 25.4477 29 26V32C29 32.5523 29.4477 33 30 33H34C34.5523 33 35 32.5523 35 32V26C35 25.4477 34.5523 25 34 25Z" stroke="#CCCCCC" stroke-width="2" stroke-linecap="round" stroke-linejoin="round"/>
<path d="M46 21H42C41.4477 21 41 21.4477 41 22V32C41 32.5523 41.4477 33 42 33H46C46.5523 33 47 32.5523 47 32V22C47 21.4477 46.5523 21 46 21Z" stroke="#CCCCCC" stroke-width="2" stroke-linecap="round" stroke-linejoin="round"/>
<path d="M40 17H36C35.4477 17 35 17.4477 35 18V32C35 32.5523 35.4477 33 36 33H40C40.5523 33 41 32.5523 41 32V18C41 17.4477 40.5523 17 40 17Z" stroke="#CCCCCC" stroke-width="2" stroke-linecap="round" stroke-linejoin="round"/>
<path d="M30 33H44" stroke="#CCCCCC" stroke-width="2" stroke-linecap="round" stroke-linejoin="round"/>
</svg>
